{
	"asset":{
		"generator":"Khronos glTF Blender I/O v4.2.57",
		"version":"2.0"
	},
	"scene":0,
	"scenes":[
		{
			"name":"Scene",
			"nodes":[
				0
			]
		}
	],
	"nodes":[
		{
			"mesh":0,
			"name":"Text"
		}
	],
	"materials":[
		{
			"doubleSided":true,
			"name":"OMG_main",
			"pbrMetallicRoughness":{
				"baseColorFactor":[
					0.8013269305229187,
					0.8013269305229187,
					0.8013269305229187,
					1
				],
				"metallicFactor":0.9067357778549194,
				"roughnessFactor":0.11139896512031555
			}
		}
	],
	"meshes":[
		{
			"name":"Text",
			"primitives":[
				{
					"attributes":{
						"POSITION":0,
						"NORMAL":1,
						"TEXCOORD_0":2
					},
					"indices":3,
					"material":0
				}
			]
		}
	],
	"accessors":[
		{
			"bufferView":0,
			"componentType":5126,
			"count":1202,
			"max":[
				0.7690789699554443,
				0.2900000214576721,
				0.277671217918396
			],
			"min":[
				-0.7891446948051453,
				-0.2900000214576721,
				-0.23256582021713257
			],
			"type":"VEC3"
		},
		{
			"bufferView":1,
			"componentType":5126,
			"count":1202,
			"type":"VEC3"
		},
		{
			"bufferView":2,
			"componentType":5126,
			"count":1202,
			"type":"VEC2"
		},
		{
			"bufferView":3,
			"componentType":5123,
			"count":3504,
			"type":"SCALAR"
		}
	],
	"bufferViews":[
		{
			"buffer":0,
			"byteLength":14424,
			"byteOffset":0,
			"target":34962
		},
		{
			"buffer":0,
			"byteLength":14424,
			"byteOffset":14424,
			"target":34962
		},
		{
			"buffer":0,
			"byteLength":9616,
			"byteOffset":28848,
			"target":34962
		},
		{
			"buffer":0,
			"byteLength":7008,
			"byteOffset":38464,
			"target":34963
		}
	],
	"buffers":[
		{
			"byteLength":45472,
			"uri":"OMG.bin"
		}
	]
}
